<svg version="1" xmlns="http://www.w3.org/2000/svg" width="1066.667" height="1066.667" viewBox="0 0 800.000000 800.000000"><path d="M166 400v247h157l.2-121.7.3-121.7 6.9 10.9C365.2 469.9 419.6 556 421 558c.9 1.4 5.2 8.1 9.5 15s9.8 15.6 12.2 19.5c7 11 14.4 22.7 19.4 30.7 2.5 4 7 11 9.8 15.6l5.3 8.2H634V153H477l-.2 121.6-.3 121.6-10.9-17.3c-6-9.6-13.5-21.3-16.5-26.1-3.1-4.9-7.2-11.4-9.2-14.5-2-3.2-6.9-11-10.9-17.3-4-6.3-9.4-14.8-11.9-18.8-4.3-6.9-8.4-13.3-19.5-31-2.5-3.9-6.7-10.5-9.2-14.5-2.5-3.9-6.9-10.9-9.7-15.4-2.9-4.5-7.6-11.9-10.4-16.5-2.9-4.6-14.2-22.5-25.2-39.8l-19.9-31.5-78.6-.3-78.6-.2v247z"/></svg>